<svg width="251" height="404" viewBox="0 0 251 404" fill="none" xmlns="http://www.w3.org/2000/svg">
<path d="M1 223.091C43.0061 223.091 71.2059 254.086 113.506 254.086C155.806 254.086 187.237 223.091 226.305 223.091" stroke="#FAFAFA"/>
<path d="M1 224.317C29.7874 222.847 74.7309 269.082 114.093 269.082C153.456 269.082 190.468 224.317 226.305 224.317" stroke="#FAFAFA"/>
<path d="M1 226.072C35.6623 226.072 75.3184 287.164 114.681 287.164C154.043 287.164 188.705 226.072 226.305 226.072" stroke="#FAFAFA"/>
<path d="M1 227.264C34.1936 227.264 75.3184 306.425 114.681 306.425C154.043 306.425 190.468 227.264 226.305 227.264" stroke="#FAFAFA"/>
<path d="M1 228.456C33.6061 228.456 75.3184 333.94 114.681 333.94C154.043 333.94 188.754 228.456 226.305 228.456" stroke="#FAFAFA"/>
<path d="M1 230.244C33.6061 230.244 75.3184 363.028 114.681 363.028C154.043 363.028 187.824 230.244 226.305 230.244" stroke="#FAFAFA"/>
<circle cx="113.421" cy="223.091" r="3.43082" stroke="#FAFAFA"/>
<path d="M19.4748 1C8.46862 1 8.46855 9.25472 8.46855 12.7925V21.0472C8.46855 32.0535 17.9025 32.0535 17.9025 32.0535C15.544 35.9843 6.11006 43.0597 6.11006 43.0597C6.11006 43.0597 1 48.1698 1.39308 54.4591C1.78616 60.7484 1 364.208 1 364.208C1 364.208 1 370.89 5.3239 375.214C9.6478 379.538 19.8679 386.613 19.8679 386.613C19.8679 386.613 21.0472 387.399 21.0472 388.972C21.0472 390.544 20.6541 402.73 35.9843 402.73H192.431C205.796 403.123 205.796 389.365 205.796 389.365C205.796 387.399 206.975 386.613 206.975 386.613C206.975 386.613 219.947 378.358 222.305 374.035C224.664 369.711 225.843 367.745 225.843 361.849V56.0314C225.843 54.8522 226.236 45.8113 219.553 41.8805C212.871 37.9497 208.94 32.0535 208.94 32.0535C218.374 32.0535 218.374 22.2264 218.374 22.2264V12.7925C218.767 1 209.726 1 206.582 1H19.4748Z" stroke="#FAFAFA" stroke-width="2"/>
<line x1="1" y1="132.182" x2="225.843" y2="132.182" stroke="#FAFAFA"/>
<line x1="1" y1="364.887" x2="225.843" y2="364.887" stroke="#FAFAFA"/>
<path d="M111.13 225.792C111.13 225.515 110.906 225.292 110.63 225.292L106.13 225.292C105.854 225.292 105.63 225.515 105.63 225.792C105.63 226.068 105.854 226.292 106.13 226.292L110.13 226.292L110.13 230.292C110.13 230.568 110.354 230.792 110.63 230.792C110.906 230.792 111.13 230.568 111.13 230.292L111.13 225.792ZM106.267 230.862L110.984 226.145L110.277 225.438L105.56 230.155L106.267 230.862Z" fill="#FAFAFA"/>
<path d="M115.633 220.289C115.633 220.565 115.857 220.789 116.133 220.789L120.633 220.789C120.91 220.789 121.133 220.565 121.133 220.289C121.133 220.012 120.91 219.789 120.633 219.789L116.633 219.789L116.633 215.789C116.633 215.512 116.41 215.289 116.133 215.289C115.857 215.289 115.633 215.512 115.633 215.789L115.633 220.289ZM120.497 215.218L115.78 219.935L116.487 220.642L121.204 215.925L120.497 215.218Z" fill="#FAFAFA"/>
<path d="M120.89 215.623H143.296" stroke="#FAFAFA" stroke-linejoin="round"/>
<circle r="0.393082" transform="matrix(1 0 0 -1 120.811 215.623)" fill="#FAFAFA"/>
<path d="M127.299 202.727H132.429C133.761 202.727 134.937 202.997 135.957 203.537C136.977 204.065 137.769 204.809 138.333 205.769C138.897 206.717 139.179 207.803 139.179 209.027C139.179 210.251 138.897 211.343 138.333 212.303C137.769 213.251 136.977 213.995 135.957 214.535C134.937 215.063 133.761 215.327 132.429 215.327H127.299V202.727ZM132.357 214.175C133.461 214.175 134.427 213.959 135.255 213.527C136.083 213.083 136.725 212.477 137.181 211.709C137.637 210.929 137.865 210.035 137.865 209.027C137.865 208.019 137.637 207.131 137.181 206.363C136.725 205.583 136.083 204.977 135.255 204.545C134.427 204.101 133.461 203.879 132.357 203.879H128.631V214.175H132.357Z" fill="#FAFAFA"/>
<path d="M234.844 223.131C234.649 222.935 234.332 222.935 234.137 223.131L230.955 226.313C230.76 226.508 230.76 226.825 230.955 227.02C231.15 227.215 231.467 227.215 231.662 227.02L234.49 224.191L237.319 227.02C237.514 227.215 237.831 227.215 238.026 227.02C238.221 226.825 238.221 226.508 238.026 226.313L234.844 223.131ZM234.99 288.736V223.484H233.99V288.736H234.99Z" fill="#FAFAFA"/>
<path d="M234.137 361.416C234.332 361.612 234.649 361.612 234.844 361.416L238.026 358.234C238.221 358.039 238.221 357.723 238.026 357.527C237.831 357.332 237.514 357.332 237.319 357.527L234.49 360.356L231.662 357.527C231.467 357.332 231.15 357.332 230.955 357.527C230.76 357.723 230.76 358.039 230.955 358.234L234.137 361.416ZM233.99 288.736V361.063H234.99V288.736H233.99Z" fill="#FAFAFA"/>
<line x1="113" y1="222.984" x2="234.069" y2="222.984" stroke="#FAFAFA" stroke-dasharray="2 2"/>
<line x1="113.421" y1="362.921" x2="234.491" y2="362.921" stroke="#FAFAFA" stroke-dasharray="2 2"/>
<path d="M250.364 287.633V300.233H249.05V294.419H241.166V300.233H239.834V287.633H241.166V293.249H249.05V287.633H250.364Z" fill="#FAFAFA"/>
<rect x="54.9592" y="60.4623" width="116.526" height="50.2841" rx="6.5" stroke="#FAFAFA"/>
</svg>
