<svg width="550" height="550" viewBox="0 0 550 550" fill="none" xmlns="http://www.w3.org/2000/svg">
<path d="M296.332 147.332C296.332 159.113 286.781 168.664 275 168.664C263.219 168.664 253.668 159.113 253.668 147.332C253.668 135.551 263.219 126 275 126C286.781 126 296.332 135.551 296.332 147.332Z" fill="#FAFAFA"/>
<path d="M275 424.664C266.168 424.664 259 417.496 259 408.664V243.332H237.668C228.836 243.332 221.668 236.164 221.668 227.332C221.668 218.5 228.836 211.332 237.668 211.332H275C283.832 211.332 291 218.5 291 227.332V408.664C291 417.496 283.832 424.664 275 424.664Z" fill="#FAFAFA"/>
<path d="M323 424.664H227C218.168 424.664 211 417.496 211 408.664C211 399.832 218.168 392.664 227 392.664H323C331.832 392.664 339 399.832 339 408.664C339 417.496 331.832 424.664 323 424.664Z" fill="#FAFAFA"/>
<circle cx="275" cy="275" r="262.5" stroke="#FAFAFA" stroke-width="25"/>
</svg>
