<svg width="227" height="356" viewBox="0 0 227 356" fill="none" xmlns="http://www.w3.org/2000/svg">
<path d="M225.843 313.39C225.843 313.39 226 10.9999 225.843 7.57226C225.686 4.14459 220.5 1 220.5 1H7.5C7.5 1 1.39308 1.99993 1.39308 5.99994C1.39308 9.99994 1 315.748 1 315.748C1 315.748 1 322.431 5.3239 326.755C9.6478 331.079 19.8679 338.154 19.8679 338.154C19.8679 338.154 21.0472 338.94 21.0472 340.513C21.0472 342.085 20.6541 354.27 35.9843 354.27H192.431C205.796 354.664 205.796 340.906 205.796 340.906C205.796 338.94 206.975 338.154 206.975 338.154C206.975 338.154 219.947 329.899 222.305 325.575C224.664 321.252 225.843 319.286 225.843 313.39Z" stroke="#FAFAFA" stroke-width="2"/>
<path d="M107 112L120 125M120 112L107 125" stroke="#D63131" stroke-width="3" stroke-linecap="round" stroke-linejoin="round"/>
<circle cx="113.5" cy="118.5" r="16" stroke="#D63131"/>
<line x1="96.5" y1="118.5" x2="1.5" y2="118.5" stroke="#FAFAFA" stroke-linecap="round" stroke-dasharray="2 2"/>
<line x1="223.5" y1="319.5" x2="1.5" y2="319.5" stroke="#FAFAFA" stroke-linecap="round" stroke-dasharray="2 2"/>
<path d="M53.2929 317.707C53.6834 318.098 54.3166 318.098 54.7071 317.707L61.0711 311.343C61.4616 310.953 61.4616 310.319 61.0711 309.929C60.6805 309.538 60.0474 309.538 59.6569 309.929L54 315.586L48.3431 309.929C47.9526 309.538 47.3195 309.538 46.9289 309.929C46.5384 310.319 46.5384 310.953 46.9289 311.343L53.2929 317.707ZM54.7071 120.293C54.3166 119.902 53.6834 119.902 53.2929 120.293L46.9289 126.657C46.5384 127.047 46.5384 127.681 46.9289 128.071C47.3195 128.462 47.9526 128.462 48.3432 128.071L54 122.414L59.6569 128.071C60.0474 128.462 60.6806 128.462 61.0711 128.071C61.4616 127.681 61.4616 127.047 61.0711 126.657L54.7071 120.293ZM55 317L55 121L53 121L53 317L55 317Z" fill="#FAFAFA"/>
<path d="M70.7607 212.4V225H69.4467V219.186H61.5627V225H60.2307V212.4H61.5627V218.016H69.4467V212.4H70.7607Z" fill="#FAFAFA"/>
</svg>
