<svg width="477" height="404" viewBox="0 0 477 404" fill="none" xmlns="http://www.w3.org/2000/svg">
<path d="M19.4748 1C8.46862 1 8.46855 9.25472 8.46855 12.7925V21.0472C8.46855 32.0535 17.9025 32.0535 17.9025 32.0535C15.544 35.9843 6.11006 43.0597 6.11006 43.0597C6.11006 43.0597 1 48.1698 1.39308 54.4591C1.78616 60.7484 1 364.208 1 364.208C1 364.208 1 370.89 5.3239 375.214C9.6478 379.538 19.8679 386.613 19.8679 386.613C19.8679 386.613 21.0472 387.399 21.0472 388.972C21.0472 390.544 20.6541 402.73 35.9843 402.73H192.431C205.796 403.123 205.796 389.365 205.796 389.365C205.796 387.399 206.975 386.613 206.975 386.613C206.975 386.613 219.947 378.358 222.305 374.035C224.664 369.711 225.843 367.745 225.843 361.849V56.0314C225.843 54.8522 226.236 45.8113 219.553 41.8805C212.871 37.9497 208.94 32.0535 208.94 32.0535C218.374 32.0535 218.374 22.2264 218.374 22.2264V12.7925C218.767 1 209.726 1 206.582 1H19.4748Z" stroke="#FAFAFA" stroke-width="2"/>
<path d="M269.475 1C258.469 1 258.469 9.25472 258.469 12.7925V21.0472C258.469 32.0535 267.903 32.0535 267.903 32.0535C265.544 35.9843 256.11 43.0597 256.11 43.0597C256.11 43.0597 251 48.1698 251.393 54.4591C251.786 60.7484 251 364.208 251 364.208C251 364.208 251 370.89 255.324 375.214C259.648 379.538 269.868 386.613 269.868 386.613C269.868 386.613 271.047 387.399 271.047 388.972C271.047 390.544 270.654 402.73 285.984 402.73H442.431C455.796 403.123 455.796 389.365 455.796 389.365C455.796 387.399 456.975 386.613 456.975 386.613C456.975 386.613 469.947 378.358 472.305 374.035C474.664 369.711 475.843 367.745 475.843 361.849V56.0314C475.843 54.8522 476.236 45.8113 469.553 41.8805C462.871 37.9497 458.94 32.0535 458.94 32.0535C468.374 32.0535 468.374 22.2264 468.374 22.2264V12.7925C468.767 1 459.726 1 456.582 1H269.475Z" stroke="#FAFAFA" stroke-width="2"/>
<line x1="6" y1="39" x2="221" y2="39" stroke="#D63131" stroke-width="2"/>
<line x1="252" y1="291" x2="475" y2="291" stroke="#D63131" stroke-width="2"/>
<line x1="252" y1="201" x2="475" y2="201" stroke="#D63131" stroke-width="2"/>
<path d="M318 201H317V202V290V291H318H406H407V290V202V201H406H318Z" stroke="#D63131" stroke-width="2"/>
<path d="M102 9.5L124 31.5M124 9.5L102 31.5" stroke="#D63131" stroke-width="3" stroke-linecap="round" stroke-linejoin="round"/>
<path d="M352 100L374 122M374 100L352 122" stroke="#D63131" stroke-width="3" stroke-linecap="round" stroke-linejoin="round"/>
<path d="M432 236L454 258M454 236L432 258" stroke="#D63131" stroke-width="3" stroke-linecap="round" stroke-linejoin="round"/>
<path d="M273 236L295 258M295 236L273 258" stroke="#D63131" stroke-width="3" stroke-linecap="round" stroke-linejoin="round"/>
</svg>
