<svg width="233" height="402" viewBox="0 0 233 402" fill="none" xmlns="http://www.w3.org/2000/svg">
<path d="M224.41 45.2056C224.41 45.2056 229.664 48.3638 229.823 51.8064C229.983 55.249 229.823 358.954 229.823 358.954C229.823 364.876 228.628 366.849 226.239 371.192C223.849 375.535 210.706 383.825 210.706 383.825C210.706 383.825 209.511 384.615 209.511 386.589C209.511 386.589 209.511 400.407 195.969 400.012C195.969 400.012 52.9849 400.012 37.4518 400.012C21.9187 400.012 22.317 387.773 22.317 386.194C22.317 384.615 21.1222 383.825 21.1222 383.825C21.1222 383.825 10.7668 376.719 6.38565 372.377C2.00452 368.034 2.00452 361.322 2.00452 361.322C2.00452 361.322 2.4028 54.2446 2.4028 50.2272C2.4028 46.2098 8.08393 45.2056 8.08393 45.2056" stroke="#FAFAFA" stroke-width="2"/>
<path d="M1.16153 64.5537C0.999981 61.1111 0.999983 42.0666 0.999983 42.0666C0.999982 36.1447 2.2115 34.1708 4.63458 29.8281C7.05766 25.4854 20.3846 17.1948 20.3846 17.1948C20.3846 17.1948 21.5962 16.4052 21.5962 14.4312C21.5962 14.4312 21.5961 0.613544 35.3269 1.00835L196.058 1.00833C211.808 1.00833 211.404 13.2469 211.404 14.826C211.404 16.4052 212.615 17.1948 212.615 17.1948C212.615 17.1948 223.115 24.301 227.558 28.6437C232 32.9864 232 39.6978 232 39.6978C232 39.6978 231.758 62.1154 231.758 66.1328" stroke="#C598FF" stroke-width="2"/>
<path d="M72.6108 118.014H157.372V202.014H72.6108V118.014Z" fill="#FAFAFA" fill-opacity="0.1" stroke="#FAFAFA" stroke-width="2" stroke-linejoin="round"/>
<path d="M116.509 160.014C116.509 160.838 115.834 161.514 114.991 161.514C114.149 161.514 113.474 160.838 113.474 160.014C113.474 159.19 114.149 158.514 114.991 158.514C115.834 158.514 116.509 159.19 116.509 160.014Z" stroke="#FAFAFA"/>
<path d="M114.293 39.7071C114.683 40.0976 115.317 40.0976 115.707 39.7071L122.071 33.3431C122.462 32.9526 122.462 32.3195 122.071 31.9289C121.681 31.5384 121.047 31.5384 120.657 31.9289L115 37.5858L109.343 31.9289C108.953 31.5384 108.319 31.5384 107.929 31.9289C107.538 32.3195 107.538 32.9526 107.929 33.3431L114.293 39.7071ZM114 12V39H116V12H114Z" fill="#C598FF"/>
<rect x="4.5" y="83" width="223.5" height="274" fill="#C598FF" fill-opacity="0.1" stroke="#C598FF" stroke-width="2" stroke-linecap="round" stroke-linejoin="round" stroke-dasharray="4 4"/>
</svg>
