<svg width="288" height="513" viewBox="0 0 288 513" fill="none" xmlns="http://www.w3.org/2000/svg">
<path d="M1 232.5C54.4317 232.5 90.3019 271.925 144.107 271.925C197.913 271.925 237.893 232.5 287.588 232.5" stroke="black"/>
<path d="M1 234.059C37.6175 232.189 94.7857 291 144.855 291C194.923 291 242.003 234.059 287.588 234.059" stroke="black"/>
<path d="M1 236.291C45.0905 236.291 95.533 314 145.602 314C195.671 314 239.761 236.291 287.588 236.291" stroke="black"/>
<path d="M1 237.807C43.2223 237.807 95.533 338.5 145.602 338.5C195.671 338.5 242.003 237.807 287.588 237.807" stroke="black"/>
<path d="M1 239.324C42.475 239.324 95.533 373.5 145.602 373.5C195.671 373.5 239.824 239.324 287.588 239.324" stroke="black"/>
<path d="M1 241.598C42.475 241.598 95.533 410.5 145.602 410.5C195.671 410.5 238.64 241.598 287.588 241.598" stroke="black"/>
<path d="M24.4999 1C10.5001 1 10.5 11.5 10.5 16V26.5C10.5 40.5 22.5 40.5 22.5 40.5C19.5 45.5 7.5 54.5 7.5 54.5C7.5 54.5 1 61 1.5 69C2 77 1 463 1 463C1 463 1 471.5 6.5 477C12 482.5 25 491.5 25 491.5C25 491.5 26.5 492.5 26.5 494.5C26.5 496.5 26 512 45.5 512H244.5C261.5 512.5 261.5 495 261.5 495C261.5 492.5 263 491.5 263 491.5C263 491.5 279.5 481 282.5 475.5C285.5 470 287 467.5 287 460V71C287 69.5 287.5 58 279 53C270.5 48 265.5 40.5 265.5 40.5C277.5 40.5 277.5 28 277.5 28V16C278 1 266.5 1 262.5 1H24.4999Z" stroke="black"/>
<line x1="1" y1="168" x2="287" y2="168" stroke="black"/>
<line x1="1" y1="448" x2="287" y2="448" stroke="black"/>
<circle cx="144" cy="232.5" r="4.5" stroke="black"/>
<path d="M84.4319 92.1668H85.7639V104.767H84.4319V92.1668ZM94.5795 104.191C94.3395 104.407 94.0395 104.575 93.6795 104.695C93.3315 104.803 92.9655 104.857 92.5815 104.857C91.6935 104.857 91.0095 104.617 90.5295 104.137C90.0495 103.657 89.8095 102.979 89.8095 102.103V96.3788H88.1175V95.2988H89.8095V93.2288H91.0875V95.2988H93.9675V96.3788H91.0875V102.031C91.0875 102.595 91.2255 103.027 91.5015 103.327C91.7895 103.615 92.1975 103.759 92.7255 103.759C92.9895 103.759 93.2415 103.717 93.4815 103.633C93.7335 103.549 93.9495 103.429 94.1295 103.273L94.5795 104.191ZM101.617 95.2988H102.895V104.767H101.617V95.2988ZM102.265 93.2288C102.001 93.2288 101.779 93.1388 101.599 92.9588C101.419 92.7788 101.329 92.5628 101.329 92.3108C101.329 92.0708 101.419 91.8608 101.599 91.6808C101.779 91.5008 102.001 91.4108 102.265 91.4108C102.529 91.4108 102.751 91.5008 102.931 91.6808C103.111 91.8488 103.201 92.0528 103.201 92.2928C103.201 92.5568 103.111 92.7788 102.931 92.9588C102.751 93.1388 102.529 93.2288 102.265 93.2288ZM108.989 104.857C108.221 104.857 107.483 104.749 106.775 104.533C106.079 104.305 105.533 104.023 105.137 103.687L105.713 102.679C106.109 102.991 106.607 103.249 107.207 103.453C107.807 103.645 108.431 103.741 109.079 103.741C109.943 103.741 110.579 103.609 110.987 103.345C111.407 103.069 111.617 102.685 111.617 102.193C111.617 101.845 111.503 101.575 111.275 101.383C111.047 101.179 110.759 101.029 110.411 100.933C110.063 100.825 109.601 100.723 109.025 100.627C108.257 100.483 107.639 100.339 107.171 100.195C106.703 100.039 106.301 99.7808 105.965 99.4208C105.641 99.0608 105.479 98.5628 105.479 97.9268C105.479 97.1348 105.809 96.4868 106.469 95.9828C107.129 95.4788 108.047 95.2268 109.223 95.2268C109.835 95.2268 110.447 95.3108 111.059 95.4788C111.671 95.6348 112.175 95.8448 112.571 96.1088L112.013 97.1348C111.233 96.5948 110.303 96.3248 109.223 96.3248C108.407 96.3248 107.789 96.4688 107.369 96.7568C106.961 97.0448 106.757 97.4228 106.757 97.8908C106.757 98.2508 106.871 98.5388 107.099 98.7548C107.339 98.9708 107.633 99.1328 107.981 99.2408C108.329 99.3368 108.809 99.4388 109.421 99.5468C110.177 99.6908 110.783 99.8348 111.239 99.9788C111.695 100.123 112.085 100.369 112.409 100.717C112.733 101.065 112.895 101.545 112.895 102.157C112.895 102.985 112.547 103.645 111.851 104.137C111.167 104.617 110.213 104.857 108.989 104.857ZM124.793 95.2268C125.981 95.2268 126.923 95.5748 127.619 96.2708C128.327 96.9548 128.681 97.9568 128.681 99.2768V104.767H127.403V99.4028C127.403 98.4188 127.157 97.6688 126.665 97.1528C126.173 96.6368 125.471 96.3788 124.559 96.3788C123.539 96.3788 122.729 96.6848 122.129 97.2968C121.541 97.8968 121.247 98.7308 121.247 99.7988V104.767H119.969V95.2988H121.193V97.0448C121.541 96.4688 122.021 96.0248 122.633 95.7128C123.257 95.3888 123.977 95.2268 124.793 95.2268ZM136.055 104.857C135.143 104.857 134.321 104.653 133.589 104.245C132.857 103.825 132.281 103.249 131.861 102.517C131.441 101.785 131.231 100.957 131.231 100.033C131.231 99.1088 131.441 98.2808 131.861 97.5488C132.281 96.8168 132.857 96.2468 133.589 95.8388C134.321 95.4308 135.143 95.2268 136.055 95.2268C136.967 95.2268 137.789 95.4308 138.521 95.8388C139.253 96.2468 139.823 96.8168 140.231 97.5488C140.651 98.2808 140.861 99.1088 140.861 100.033C140.861 100.957 140.651 101.785 140.231 102.517C139.823 103.249 139.253 103.825 138.521 104.245C137.789 104.653 136.967 104.857 136.055 104.857ZM136.055 103.723C136.727 103.723 137.327 103.573 137.855 103.273C138.395 102.961 138.815 102.523 139.115 101.959C139.415 101.395 139.565 100.753 139.565 100.033C139.565 99.3128 139.415 98.6708 139.115 98.1068C138.815 97.5428 138.395 97.1108 137.855 96.8108C137.327 96.4988 136.727 96.3428 136.055 96.3428C135.383 96.3428 134.777 96.4988 134.237 96.8108C133.709 97.1108 133.289 97.5428 132.977 98.1068C132.677 98.6708 132.527 99.3128 132.527 100.033C132.527 100.753 132.677 101.395 132.977 101.959C133.289 102.523 133.709 102.961 134.237 103.273C134.777 103.573 135.383 103.723 136.055 103.723ZM148.456 104.191C148.216 104.407 147.916 104.575 147.556 104.695C147.208 104.803 146.842 104.857 146.458 104.857C145.57 104.857 144.886 104.617 144.406 104.137C143.926 103.657 143.686 102.979 143.686 102.103V96.3788H141.994V95.2988H143.686V93.2288H144.964V95.2988H147.844V96.3788H144.964V102.031C144.964 102.595 145.102 103.027 145.378 103.327C145.666 103.615 146.074 103.759 146.602 103.759C146.866 103.759 147.118 103.717 147.358 103.633C147.61 103.549 147.826 103.429 148.006 103.273L148.456 104.191ZM158.806 95.2268C160.042 95.2268 160.99 95.5388 161.65 96.1628C162.31 96.7748 162.64 97.6868 162.64 98.8988V104.767H161.416V103.291C161.128 103.783 160.702 104.167 160.138 104.443C159.586 104.719 158.926 104.857 158.158 104.857C157.102 104.857 156.262 104.605 155.638 104.101C155.014 103.597 154.702 102.931 154.702 102.103C154.702 101.299 154.99 100.651 155.566 100.159C156.154 99.6668 157.084 99.4208 158.356 99.4208H161.362V98.8448C161.362 98.0288 161.134 97.4108 160.678 96.9908C160.222 96.5588 159.556 96.3428 158.68 96.3428C158.08 96.3428 157.504 96.4448 156.952 96.6488C156.4 96.8408 155.926 97.1108 155.53 97.4588L154.954 96.5048C155.434 96.0968 156.01 95.7848 156.682 95.5688C157.354 95.3408 158.062 95.2268 158.806 95.2268ZM158.356 103.849C159.076 103.849 159.694 103.687 160.21 103.363C160.726 103.027 161.11 102.547 161.362 101.923V100.375H158.392C156.772 100.375 155.962 100.939 155.962 102.067C155.962 102.619 156.172 103.057 156.592 103.381C157.012 103.693 157.6 103.849 158.356 103.849ZM174.746 104.857C173.81 104.857 172.97 104.653 172.226 104.245C171.494 103.837 170.918 103.267 170.498 102.535C170.078 101.791 169.868 100.957 169.868 100.033C169.868 99.1088 170.078 98.2808 170.498 97.5488C170.918 96.8168 171.494 96.2468 172.226 95.8388C172.97 95.4308 173.81 95.2268 174.746 95.2268C175.562 95.2268 176.288 95.3888 176.924 95.7128C177.572 96.0248 178.082 96.4868 178.454 97.0988L177.5 97.7468C177.188 97.2788 176.792 96.9308 176.312 96.7028C175.832 96.4628 175.31 96.3428 174.746 96.3428C174.062 96.3428 173.444 96.4988 172.892 96.8108C172.352 97.1108 171.926 97.5428 171.614 98.1068C171.314 98.6708 171.164 99.3128 171.164 100.033C171.164 100.765 171.314 101.413 171.614 101.977C171.926 102.529 172.352 102.961 172.892 103.273C173.444 103.573 174.062 103.723 174.746 103.723C175.31 103.723 175.832 103.609 176.312 103.381C176.792 103.153 177.188 102.805 177.5 102.337L178.454 102.985C178.082 103.597 177.572 104.065 176.924 104.389C176.276 104.701 175.55 104.857 174.746 104.857ZM184.277 95.2268C185.513 95.2268 186.461 95.5388 187.121 96.1628C187.781 96.7748 188.111 97.6868 188.111 98.8988V104.767H186.887V103.291C186.599 103.783 186.173 104.167 185.609 104.443C185.057 104.719 184.397 104.857 183.629 104.857C182.573 104.857 181.733 104.605 181.109 104.101C180.485 103.597 180.173 102.931 180.173 102.103C180.173 101.299 180.461 100.651 181.037 100.159C181.625 99.6668 182.555 99.4208 183.827 99.4208H186.833V98.8448C186.833 98.0288 186.605 97.4108 186.149 96.9908C185.693 96.5588 185.027 96.3428 184.151 96.3428C183.551 96.3428 182.975 96.4448 182.423 96.6488C181.871 96.8408 181.397 97.1108 181.001 97.4588L180.425 96.5048C180.905 96.0968 181.481 95.7848 182.153 95.5688C182.825 95.3408 183.533 95.2268 184.277 95.2268ZM183.827 103.849C184.547 103.849 185.165 103.687 185.681 103.363C186.197 103.027 186.581 102.547 186.833 101.923V100.375H183.863C182.243 100.375 181.433 100.939 181.433 102.067C181.433 102.619 181.643 103.057 182.063 103.381C182.483 103.693 183.071 103.849 183.827 103.849ZM196.406 95.2268C197.594 95.2268 198.536 95.5748 199.232 96.2708C199.94 96.9548 200.294 97.9568 200.294 99.2768V104.767H199.016V99.4028C199.016 98.4188 198.77 97.6688 198.278 97.1528C197.786 96.6368 197.084 96.3788 196.172 96.3788C195.152 96.3788 194.342 96.6848 193.742 97.2968C193.154 97.8968 192.86 98.7308 192.86 99.7988V104.767H191.582V95.2988H192.806V97.0448C193.154 96.4688 193.634 96.0248 194.246 95.7128C194.87 95.3888 195.59 95.2268 196.406 95.2268ZM203.889 104.857C203.625 104.857 203.397 104.761 203.205 104.569C203.025 104.377 202.935 104.143 202.935 103.867C202.935 103.591 203.025 103.363 203.205 103.183C203.397 102.991 203.625 102.895 203.889 102.895C204.153 102.895 204.381 102.991 204.573 103.183C204.765 103.363 204.861 103.591 204.861 103.867C204.861 104.143 204.765 104.377 204.573 104.569C204.381 104.761 204.153 104.857 203.889 104.857ZM84.0188 114.167H85.3508V126.767H84.0188V114.167ZM94.1664 126.191C93.9264 126.407 93.6264 126.575 93.2664 126.695C92.9184 126.803 92.5524 126.857 92.1684 126.857C91.2804 126.857 90.5964 126.617 90.1164 126.137C89.6364 125.657 89.3964 124.979 89.3964 124.103V118.379H87.7044V117.299H89.3964V115.229H90.6744V117.299H93.5544V118.379H90.6744V124.031C90.6744 124.595 90.8124 125.027 91.0884 125.327C91.3764 125.615 91.7844 125.759 92.3124 125.759C92.5764 125.759 92.8284 125.717 93.0684 125.633C93.3204 125.549 93.5364 125.429 93.7164 125.273L94.1664 126.191ZM101.204 117.299H102.482V126.767H101.204V117.299ZM101.852 115.229C101.588 115.229 101.366 115.139 101.186 114.959C101.006 114.779 100.916 114.563 100.916 114.311C100.916 114.071 101.006 113.861 101.186 113.681C101.366 113.501 101.588 113.411 101.852 113.411C102.116 113.411 102.338 113.501 102.518 113.681C102.698 113.849 102.788 114.053 102.788 114.293C102.788 114.557 102.698 114.779 102.518 114.959C102.338 115.139 102.116 115.229 101.852 115.229ZM108.576 126.857C107.808 126.857 107.07 126.749 106.362 126.533C105.666 126.305 105.12 126.023 104.724 125.687L105.3 124.679C105.696 124.991 106.194 125.249 106.794 125.453C107.394 125.645 108.018 125.741 108.666 125.741C109.53 125.741 110.166 125.609 110.574 125.345C110.994 125.069 111.204 124.685 111.204 124.193C111.204 123.845 111.09 123.575 110.862 123.383C110.634 123.179 110.346 123.029 109.998 122.933C109.65 122.825 109.188 122.723 108.612 122.627C107.844 122.483 107.226 122.339 106.758 122.195C106.29 122.039 105.888 121.781 105.552 121.421C105.228 121.061 105.066 120.563 105.066 119.927C105.066 119.135 105.396 118.487 106.056 117.983C106.716 117.479 107.634 117.227 108.81 117.227C109.422 117.227 110.034 117.311 110.646 117.479C111.258 117.635 111.762 117.845 112.158 118.109L111.6 119.135C110.82 118.595 109.89 118.325 108.81 118.325C107.994 118.325 107.376 118.469 106.956 118.757C106.548 119.045 106.344 119.423 106.344 119.891C106.344 120.251 106.458 120.539 106.686 120.755C106.926 120.971 107.22 121.133 107.568 121.241C107.916 121.337 108.396 121.439 109.008 121.547C109.764 121.691 110.37 121.835 110.826 121.979C111.282 122.123 111.672 122.369 111.996 122.717C112.32 123.065 112.482 123.545 112.482 124.157C112.482 124.985 112.134 125.645 111.438 126.137C110.754 126.617 109.8 126.857 108.576 126.857ZM122.867 117.227C124.103 117.227 125.051 117.539 125.711 118.163C126.371 118.775 126.701 119.687 126.701 120.899V126.767H125.477V125.291C125.189 125.783 124.763 126.167 124.199 126.443C123.647 126.719 122.987 126.857 122.219 126.857C121.163 126.857 120.323 126.605 119.699 126.101C119.075 125.597 118.763 124.931 118.763 124.103C118.763 123.299 119.051 122.651 119.627 122.159C120.215 121.667 121.145 121.421 122.417 121.421H125.423V120.845C125.423 120.029 125.195 119.411 124.739 118.991C124.283 118.559 123.617 118.343 122.741 118.343C122.141 118.343 121.565 118.445 121.013 118.649C120.461 118.841 119.987 119.111 119.591 119.459L119.015 118.505C119.495 118.097 120.071 117.785 120.743 117.569C121.415 117.341 122.123 117.227 122.867 117.227ZM122.417 125.849C123.137 125.849 123.755 125.687 124.271 125.363C124.787 125.027 125.171 124.547 125.423 123.923V122.375H122.453C120.833 122.375 120.023 122.939 120.023 124.067C120.023 124.619 120.233 125.057 120.653 125.381C121.073 125.693 121.661 125.849 122.417 125.849ZM138.808 126.857C137.872 126.857 137.032 126.653 136.288 126.245C135.556 125.837 134.98 125.267 134.56 124.535C134.14 123.791 133.93 122.957 133.93 122.033C133.93 121.109 134.14 120.281 134.56 119.549C134.98 118.817 135.556 118.247 136.288 117.839C137.032 117.431 137.872 117.227 138.808 117.227C139.624 117.227 140.35 117.389 140.986 117.713C141.634 118.025 142.144 118.487 142.516 119.099L141.562 119.747C141.25 119.279 140.854 118.931 140.374 118.703C139.894 118.463 139.372 118.343 138.808 118.343C138.124 118.343 137.506 118.499 136.954 118.811C136.414 119.111 135.988 119.543 135.676 120.107C135.376 120.671 135.226 121.313 135.226 122.033C135.226 122.765 135.376 123.413 135.676 123.977C135.988 124.529 136.414 124.961 136.954 125.273C137.506 125.573 138.124 125.723 138.808 125.723C139.372 125.723 139.894 125.609 140.374 125.381C140.854 125.153 141.25 124.805 141.562 124.337L142.516 124.985C142.144 125.597 141.634 126.065 140.986 126.389C140.338 126.701 139.612 126.857 138.808 126.857ZM148.338 117.227C149.574 117.227 150.522 117.539 151.182 118.163C151.842 118.775 152.172 119.687 152.172 120.899V126.767H150.948V125.291C150.66 125.783 150.234 126.167 149.67 126.443C149.118 126.719 148.458 126.857 147.69 126.857C146.634 126.857 145.794 126.605 145.17 126.101C144.546 125.597 144.234 124.931 144.234 124.103C144.234 123.299 144.522 122.651 145.098 122.159C145.686 121.667 146.616 121.421 147.888 121.421H150.894V120.845C150.894 120.029 150.666 119.411 150.21 118.991C149.754 118.559 149.088 118.343 148.212 118.343C147.612 118.343 147.036 118.445 146.484 118.649C145.932 118.841 145.458 119.111 145.062 119.459L144.486 118.505C144.966 118.097 145.542 117.785 146.214 117.569C146.886 117.341 147.594 117.227 148.338 117.227ZM147.888 125.849C148.608 125.849 149.226 125.687 149.742 125.363C150.258 125.027 150.642 124.547 150.894 123.923V122.375H147.924C146.304 122.375 145.494 122.939 145.494 124.067C145.494 124.619 145.704 125.057 146.124 125.381C146.544 125.693 147.132 125.849 147.888 125.849ZM167.451 117.227C168.639 117.227 169.569 117.569 170.241 118.253C170.925 118.937 171.267 119.945 171.267 121.277V126.767H169.989V121.403C169.989 120.419 169.749 119.669 169.269 119.153C168.801 118.637 168.135 118.379 167.271 118.379C166.287 118.379 165.513 118.685 164.949 119.297C164.385 119.897 164.103 120.731 164.103 121.799V126.767H162.825V121.403C162.825 120.419 162.585 119.669 162.105 119.153C161.637 118.637 160.965 118.379 160.089 118.379C159.117 118.379 158.343 118.685 157.767 119.297C157.203 119.897 156.921 120.731 156.921 121.799V126.767H155.643V117.299H156.867V119.027C157.203 118.451 157.671 118.007 158.271 117.695C158.871 117.383 159.561 117.227 160.341 117.227C161.133 117.227 161.817 117.395 162.393 117.731C162.981 118.067 163.419 118.565 163.707 119.225C164.055 118.601 164.553 118.115 165.201 117.767C165.861 117.407 166.611 117.227 167.451 117.227ZM183.012 122.429H175.092C175.164 123.413 175.542 124.211 176.226 124.823C176.91 125.423 177.774 125.723 178.818 125.723C179.406 125.723 179.946 125.621 180.438 125.417C180.93 125.201 181.356 124.889 181.716 124.481L182.436 125.309C182.016 125.813 181.488 126.197 180.852 126.461C180.228 126.725 179.538 126.857 178.782 126.857C177.81 126.857 176.946 126.653 176.19 126.245C175.446 125.825 174.864 125.249 174.444 124.517C174.024 123.785 173.814 122.957 173.814 122.033C173.814 121.109 174.012 120.281 174.408 119.549C174.816 118.817 175.368 118.247 176.064 117.839C176.772 117.431 177.564 117.227 178.44 117.227C179.316 117.227 180.102 117.431 180.798 117.839C181.494 118.247 182.04 118.817 182.436 119.549C182.832 120.269 183.03 121.097 183.03 122.033L183.012 122.429ZM178.44 118.325C177.528 118.325 176.76 118.619 176.136 119.207C175.524 119.783 175.176 120.539 175.092 121.475H181.806C181.722 120.539 181.368 119.783 180.744 119.207C180.132 118.619 179.364 118.325 178.44 118.325ZM186.856 119.153C187.156 118.517 187.6 118.037 188.188 117.713C188.788 117.389 189.526 117.227 190.402 117.227V118.469L190.096 118.451C189.1 118.451 188.32 118.757 187.756 119.369C187.192 119.981 186.91 120.839 186.91 121.943V126.767H185.632V117.299H186.856V119.153ZM196.01 117.227C197.246 117.227 198.194 117.539 198.854 118.163C199.514 118.775 199.844 119.687 199.844 120.899V126.767H198.62V125.291C198.332 125.783 197.906 126.167 197.342 126.443C196.79 126.719 196.13 126.857 195.362 126.857C194.306 126.857 193.466 126.605 192.842 126.101C192.218 125.597 191.906 124.931 191.906 124.103C191.906 123.299 192.194 122.651 192.77 122.159C193.358 121.667 194.288 121.421 195.56 121.421H198.566V120.845C198.566 120.029 198.338 119.411 197.882 118.991C197.426 118.559 196.76 118.343 195.884 118.343C195.284 118.343 194.708 118.445 194.156 118.649C193.604 118.841 193.13 119.111 192.734 119.459L192.158 118.505C192.638 118.097 193.214 117.785 193.886 117.569C194.558 117.341 195.266 117.227 196.01 117.227ZM195.56 125.849C196.28 125.849 196.898 125.687 197.414 125.363C197.93 125.027 198.314 124.547 198.566 123.923V122.375H195.596C193.976 122.375 193.166 122.939 193.166 124.067C193.166 124.619 193.376 125.057 193.796 125.381C194.216 125.693 194.804 125.849 195.56 125.849ZM203.117 114.167H204.629L204.359 122.987H203.369L203.117 114.167ZM203.873 126.857C203.609 126.857 203.381 126.767 203.189 126.587C203.009 126.395 202.919 126.173 202.919 125.921C202.919 125.657 203.009 125.441 203.189 125.273C203.369 125.093 203.597 125.003 203.873 125.003C204.137 125.003 204.359 125.093 204.539 125.273C204.719 125.441 204.809 125.657 204.809 125.921C204.809 126.173 204.719 126.395 204.539 126.587C204.359 126.767 204.137 126.857 203.873 126.857Z" fill="black"/>
<rect x="69.5" y="76.5" width="148.493" height="64.2334" rx="6.5" stroke="black"/>
</svg>
