<svg width="427" height="427" viewBox="0 0 427 427" fill="none" xmlns="http://www.w3.org/2000/svg">
<path d="M384 257C407.564 257 426.667 237.897 426.667 214.333C426.667 190.769 407.564 171.666 384 171.666C360.436 171.666 341.333 190.769 341.333 214.333C341.333 237.897 360.436 257 384 257Z" fill="black"/>
<path d="M213.333 257C236.897 257 256 237.897 256 214.333C256 190.769 236.897 171.666 213.333 171.666C189.769 171.666 170.666 190.769 170.666 214.333C170.666 237.897 189.769 257 213.333 257Z" fill="black"/>
<path d="M42.667 257C66.2313 257 85.334 237.897 85.334 214.333C85.334 190.769 66.2313 171.666 42.667 171.666C19.1027 171.666 0 190.769 0 214.333C0 237.897 19.1027 257 42.667 257Z" fill="black"/>
</svg>
