<svg width="288" height="288" viewBox="0 0 288 288" fill="none" xmlns="http://www.w3.org/2000/svg">
<circle cx="144" cy="144" r="144" fill="#1F2933"/>
<path d="M24 77C68.9322 77 99.0965 116.425 144.343 116.425C189.589 116.425 223.21 77 265 77" stroke="#FAFAFA" stroke-width="2"/>
<path d="M24 78.559C54.7927 76.6893 102.867 135.5 144.971 135.5C187.076 135.5 226.666 78.559 265 78.559" stroke="#FAFAFA" stroke-width="2"/>
<path d="M24 80.7909C61.0769 80.7909 103.495 158.5 145.6 158.5C187.704 158.5 224.781 80.7909 265 80.7909" stroke="#FAFAFA" stroke-width="2"/>
<path d="M24 82.3071C59.5059 82.3071 103.495 183 145.6 183C187.704 183 226.666 82.3071 265 82.3071" stroke="#FAFAFA" stroke-width="2"/>
<path d="M24 83.8235C58.8774 83.8235 103.495 218 145.6 218C187.704 218 224.833 83.8235 265 83.8235" stroke="#FAFAFA" stroke-width="2"/>
<path d="M24 86.098C58.8774 86.098 103.495 255 145.6 255C187.704 255 223.838 86.098 265 86.098" stroke="#FAFAFA" stroke-width="2"/>
</svg>
