<svg width="511" height="511" viewBox="0 0 511 511" fill="none" xmlns="http://www.w3.org/2000/svg">
<g clip-path="url(#clip0)">
<path d="M433.858 369.851V17.6296C433.858 7.36061 425.5 -0.998047 415.227 -0.998047H126.635C99.7343 -0.998047 77.8474 20.8889 77.8474 47.7894V419.816C77.8474 446.717 99.7304 468.599 126.635 468.599H126.744V502.506C126.744 505.328 128.331 507.913 130.845 509.192C133.364 510.467 136.389 510.221 138.666 508.557L159.216 493.527L179.769 508.557C181.079 509.516 182.631 510.003 184.194 510.003C185.352 510.003 186.514 509.734 187.586 509.192C190.105 507.913 191.691 505.328 191.691 502.506V468.599H415.227C425.5 468.599 433.855 460.245 433.855 449.972V406.171C433.855 402.03 430.498 398.674 426.357 398.674C422.217 398.674 418.86 402.03 418.86 406.171V449.972C418.86 451.98 417.231 453.609 415.223 453.609H191.691V434.841H385.129C389.27 434.841 392.627 431.485 392.627 427.348C392.627 423.208 389.27 419.851 385.129 419.851H114.229C110.089 419.851 106.732 423.208 106.732 427.348C106.732 431.485 110.089 434.841 114.229 434.841H126.744V453.609H126.635C107.999 453.609 92.8376 438.448 92.8376 419.816V411.142C92.8376 392.506 107.999 377.348 126.635 377.348H426.361C430.502 377.348 433.858 373.991 433.858 369.851V369.851ZM176.701 434.841V487.738L163.645 478.19C162.327 477.227 160.771 476.744 159.22 476.744C157.664 476.744 156.108 477.227 154.791 478.19L141.734 487.738V434.841H176.701ZM92.8415 376.007V47.7894C92.8415 29.1539 107.999 13.9922 126.635 13.9922H415.227C417.235 13.9922 418.864 15.6257 418.864 17.6296V362.354H126.635C113.524 362.354 101.613 367.563 92.8415 376.007Z" fill="#FAFAFA"/>
<path d="M135.223 390.643C131.083 390.643 127.726 393.999 127.726 398.14C127.726 402.28 131.083 405.637 135.223 405.637H291.207C295.348 405.637 298.705 402.28 298.705 398.14C298.705 393.999 295.348 390.643 291.207 390.643H135.223Z" fill="#FAFAFA"/>
<path d="M326.428 390.643C322.287 390.643 318.931 393.999 318.931 398.14C318.931 402.28 322.287 405.637 326.428 405.637H385.129C389.27 405.637 392.626 402.28 392.626 398.14C392.626 393.999 389.27 390.643 385.129 390.643H326.428Z" fill="#FAFAFA"/>
<path d="M199.959 263.992H190.777C188.777 263.992 188.192 265.817 188.192 267.642C188.192 269.467 188.709 271.356 190.777 271.356H195.756C197.242 271.356 197.63 271.878 197.565 273.507C197.436 276.638 196.467 282.373 189.035 282.373C180.761 282.373 179.853 272.204 179.853 266.466C179.853 259.623 180.955 250.627 189.035 250.627C193.365 250.627 195.304 252.713 196.273 256.427C196.725 258.122 197.824 258.841 201.445 258.841C204.741 258.841 205.581 257.014 205.194 254.929C203.705 247.239 198.082 243 189.032 243C175.847 243.717 171 253.169 171 266.466C171 279.505 176.105 290 189.356 290C201.96 290 206.421 280.809 205.969 269.594C205.84 266.078 204.677 263.992 199.959 263.992V263.992Z" fill="#FAFAFA"/>
<path d="M241.819 243C239.728 243 237.638 243.66 237.638 246.026V273.5C237.638 278.497 234.911 282.111 229.97 282.111C225.028 282.111 222.365 278.497 222.365 273.5V246.026C222.365 243.66 220.274 243 218.181 243C216.091 243 214 243.66 214 246.026V272.711C214 284.937 220.654 290 229.97 290C239.346 290 246 284.937 246 272.711V246.026C246 243.66 243.909 243 241.819 243Z" fill="#FAFAFA"/>
<path d="M259.466 243C257.233 243 255 243.662 255 246.034V286.903C255 289.341 257.233 290 259.466 290C261.699 290 264 289.341 264 286.903V246.034C264 243.662 261.699 243 259.466 243Z" fill="#FAFAFA"/>
<path d="M287.642 244H278.494C275.115 244 272 244.835 272 249.658V283.278C272 288.165 275.115 289 278.494 289H287.642C300.831 289 306 278.458 306 266.501C306 254.542 300.699 244 287.642 244V244ZM287.642 281.221H281.874C281.145 281.221 280.747 280.964 280.747 280.129V252.807C280.747 251.972 281.145 251.715 281.874 251.715H287.642C294.865 251.715 296.988 260.201 296.988 266.501C296.988 272.799 295.063 281.221 287.642 281.221Z" fill="#FAFAFA"/>
<path d="M321.759 251.712H336.266C338.48 251.712 339 249.784 339 247.856C339 245.928 338.415 244 336.266 244H318.377C315.122 244 312 244.836 312 249.656V283.342C312 288.164 315.122 289 318.377 289H336.266C338.412 289 339 287.072 339 285.144C339 283.216 338.48 281.285 336.266 281.285H321.759C320.978 281.285 320.653 281.028 320.653 280.192V269.585H333.859C336.005 269.585 336.591 267.657 336.591 265.729C336.591 263.801 336.005 261.873 333.859 261.873H320.653V252.808C320.653 251.97 320.978 251.712 321.759 251.712V251.712Z" fill="#FAFAFA"/>
<path d="M312.192 54.1948L305.209 61.1812C296.597 50.8732 285.065 43.3255 272.004 39.5906C254.679 34.6393 236.461 36.729 220.71 45.4775C204.956 54.226 193.556 68.5847 188.605 85.9102C178.383 121.672 199.159 159.087 234.925 169.31C241.096 171.076 247.314 171.914 253.439 171.914C282.788 171.914 309.864 152.581 318.324 122.99C319.638 118.39 320.464 113.661 320.784 108.932C320.858 107.844 320.897 106.253 320.897 104.448C320.897 100.312 317.544 96.955 313.4 96.955C309.26 96.955 305.907 100.312 305.907 104.448C305.907 105.883 305.876 107.177 305.825 107.922C305.576 111.602 304.932 115.286 303.907 118.869C295.958 146.686 266.858 162.846 239.042 154.896C211.229 146.943 195.065 117.844 203.018 90.031C206.866 76.5574 215.736 65.3878 227.989 58.5847C240.238 51.7816 254.406 50.152 267.88 54.0038C278.476 57.033 287.771 63.2864 294.55 71.8361L251.392 114.994L230.87 94.4755C227.942 91.5476 223.198 91.5476 220.27 94.4755C217.342 97.4033 217.342 102.148 220.27 105.076L246.09 130.896C247.556 132.358 249.474 133.091 251.392 133.091C253.311 133.091 255.229 132.362 256.691 130.896L322.792 64.7952C325.72 61.8673 325.72 57.1227 322.792 54.1948C319.864 51.267 315.119 51.267 312.192 54.1948Z" fill="#FAFAFA"/>
</g>
<defs>
<clipPath id="clip0">
<rect width="511" height="511" fill="white"/>
</clipPath>
</defs>
</svg>
