<svg width="288" height="513" viewBox="0 0 288 513" fill="none" xmlns="http://www.w3.org/2000/svg">
<path d="M1 232C54.4317 232 90.3019 271.425 144.107 271.425C197.913 271.425 237.893 232 287.588 232" stroke="black"/>
<path d="M1 233.559C37.6175 231.689 94.7857 290.5 144.855 290.5C194.923 290.5 242.003 233.559 287.588 233.559" stroke="black"/>
<path d="M1 235.791C45.0905 235.791 95.533 313.5 145.602 313.5C195.671 313.5 239.761 235.791 287.588 235.791" stroke="black"/>
<path d="M1 237.307C43.2223 237.307 95.533 338 145.602 338C195.671 338 242.003 237.307 287.588 237.307" stroke="black"/>
<path d="M1 238.824C42.475 238.824 95.533 373 145.602 373C195.671 373 239.824 238.824 287.588 238.824" stroke="black"/>
<path d="M1 241.098C42.475 241.098 95.533 410 145.602 410C195.671 410 238.64 241.098 287.588 241.098" stroke="black"/>
<path d="M24.4999 0.5C10.5001 0.5 10.5 11 10.5 15.5V26C10.5 40 22.5 40 22.5 40C19.5 45 7.5 54 7.5 54C7.5 54 1 60.5 1.5 68.5C2 76.5 1 462.5 1 462.5C1 462.5 1 471 6.5 476.5C12 482 25 491 25 491C25 491 26.5 492 26.5 494C26.5 496 26 511.5 45.5 511.5H244.5C261.5 512 261.5 494.5 261.5 494.5C261.5 492 263 491 263 491C263 491 279.5 480.5 282.5 475C285.5 469.5 287 467 287 459.5V70.5C287 69 287.5 57.5 279 52.5C270.5 47.5 265.5 40 265.5 40C277.5 40 277.5 27.5 277.5 27.5V15.5C278 0.5 266.5 0.5 262.5 0.5H24.4999Z" stroke="black"/>
<line x1="1" y1="167.5" x2="287" y2="167.5" stroke="black"/>
<line x1="1" y1="447.5" x2="287" y2="447.5" stroke="black"/>
<circle cx="144" cy="232" r="4.5" stroke="black"/>
<path d="M93.888 112.548L90.5759 100.187L94.0652 99.2525C95.1405 98.9644 96.155 98.9473 97.1087 99.2013C98.0624 99.4553 98.8804 99.961 99.5626 100.718C100.25 101.474 100.75 102.42 101.06 103.557L101.272 104.346C101.584 105.512 101.631 106.594 101.414 107.593C101.202 108.59 100.74 109.435 100.028 110.13C99.3218 110.822 98.4156 111.323 97.3093 111.632L93.888 112.548ZM92.5653 101.092L95.1609 110.779L96.8758 110.319C98.1322 109.982 99.0039 109.33 99.4908 108.363C99.9833 107.394 100.036 106.188 99.6495 104.744L99.4561 104.023C99.08 102.619 98.457 101.618 97.587 101.02C96.7212 100.415 95.6812 100.269 94.467 100.582L92.5653 101.092ZM103.382 104.991C103.141 104.091 103.1 103.234 103.258 102.422C103.422 101.607 103.766 100.921 104.29 100.362C104.819 99.8014 105.488 99.4128 106.297 99.196C107.548 98.8608 108.674 99.0231 109.676 99.6828C110.684 100.341 111.38 101.389 111.765 102.826L111.795 102.937C112.034 103.831 112.077 104.681 111.923 105.487C111.773 106.285 111.431 106.968 110.898 107.536C110.37 108.102 109.693 108.495 108.867 108.717C107.622 109.05 106.495 108.888 105.488 108.23C104.486 107.57 103.794 106.527 103.412 105.101L103.382 104.991ZM105.012 104.754C105.284 105.773 105.739 106.528 106.374 107.019C107.014 107.509 107.731 107.647 108.523 107.435C109.321 107.221 109.872 106.74 110.175 105.991C110.476 105.237 110.476 104.297 110.174 103.171C109.904 102.163 109.445 101.413 108.797 100.919C108.154 100.418 107.436 100.274 106.643 100.486C105.868 100.694 105.325 101.17 105.015 101.914C104.705 102.659 104.704 103.605 105.012 104.754ZM129.026 103.133L127.388 103.572L118.613 95.7141L121.165 105.239L119.527 105.678L116.214 93.3176L117.853 92.8786L126.656 100.774L124.093 91.2066L125.714 90.7721L129.026 103.133ZM130.006 97.8569C129.765 96.957 129.723 96.1007 129.882 95.2879C130.045 94.4736 130.389 93.787 130.913 93.2281C131.442 92.6677 132.111 92.2791 132.921 92.0623C134.172 91.7271 135.298 91.8894 136.3 92.5491C137.307 93.2072 138.003 94.2551 138.388 95.6927L138.418 95.8031C138.658 96.6973 138.7 97.5472 138.546 98.3529C138.396 99.1513 138.054 99.8343 137.521 100.402C136.993 100.968 136.316 101.362 135.49 101.583C134.245 101.917 133.119 101.754 132.111 101.096C131.109 100.437 130.417 99.3936 130.035 97.9673L130.006 97.8569ZM131.635 97.6206C131.908 98.6393 132.362 99.3942 132.997 99.8853C133.638 100.375 134.354 100.513 135.147 100.301C135.945 100.087 136.495 99.6061 136.798 98.8577C137.099 98.1036 137.099 97.1634 136.797 96.0371C136.527 95.0297 136.069 94.2791 135.421 93.7855C134.777 93.2846 134.059 93.1404 133.266 93.3527C132.491 93.5604 131.948 94.0365 131.638 94.7808C131.328 95.5251 131.327 96.4717 131.635 97.6206ZM140.665 87.7853L141.261 90.0096L142.975 89.5501L143.301 90.7641L141.586 91.2236L143.112 96.9201C143.211 97.288 143.362 97.5449 143.564 97.6907C143.766 97.8308 144.05 97.8516 144.418 97.7531C144.599 97.7045 144.839 97.6039 145.138 97.451L145.479 98.7244C145.096 98.9483 144.71 99.1126 144.319 99.2173C143.617 99.4053 143.031 99.3349 142.561 99.0059C142.091 98.677 141.751 98.122 141.542 97.341L140.015 91.6444L138.343 92.0926L138.018 90.8786L139.69 90.4304L139.094 88.2062L140.665 87.7853ZM157.086 83.8037L153.113 84.8683L156.066 95.8878L154.444 96.3223L151.492 85.3028L147.527 86.3651L147.167 85.0238L156.727 82.4624L157.086 83.8037ZM159.108 90.059C158.867 89.1591 158.825 88.3028 158.984 87.4899C159.148 86.6756 159.492 85.989 160.015 85.4302C160.544 84.8698 161.214 84.4812 162.023 84.2643C163.274 83.9292 164.4 84.0914 165.402 84.7511C166.409 85.4093 167.106 86.4572 167.491 87.8948L167.52 88.0051C167.76 88.8994 167.803 89.7493 167.648 90.5549C167.498 91.3534 167.157 92.0364 166.623 92.6039C166.096 93.17 165.419 93.5637 164.592 93.7851C163.347 94.1187 162.221 93.9565 161.213 93.2983C160.212 92.6386 159.52 91.5956 159.138 90.1694L159.108 90.059ZM160.737 89.8227C161.01 90.8414 161.464 91.5963 162.099 92.0873C162.74 92.5769 163.456 92.7155 164.249 92.5032C165.047 92.2893 165.597 91.8082 165.9 91.0598C166.202 90.3057 166.201 89.3655 165.9 88.2392C165.63 87.2318 165.171 86.4812 164.523 85.9875C163.879 85.4867 163.161 85.3424 162.369 85.5547C161.593 85.7625 161.051 86.2385 160.741 86.9828C160.43 87.7271 160.429 88.6737 160.737 89.8227ZM176.121 89.5404C175.702 90.423 174.901 91.0228 173.719 91.3397C172.739 91.6021 171.917 91.5193 171.25 91.0913C170.587 90.6561 170.104 89.8818 169.799 88.7684L168.198 82.7917L169.769 82.3709L171.359 88.3051C171.732 89.6974 172.484 90.2419 173.616 89.9386C174.816 89.6171 175.494 88.9561 175.651 87.9558L173.861 81.2745L175.431 80.8536L177.892 90.0393L176.398 90.4397L176.121 89.5404ZM183.673 87.2985C184.233 87.1483 184.677 86.8474 185.005 86.3956C185.333 85.9438 185.451 85.4571 185.36 84.9356L186.846 84.5375C186.959 85.0714 186.912 85.6209 186.705 86.1857C186.499 86.7506 186.153 87.2496 185.669 87.6828C185.19 88.1144 184.639 88.4136 184.016 88.5804C182.766 88.9156 181.658 88.7665 180.694 88.1332C179.734 87.4927 179.059 86.448 178.671 84.9991L178.601 84.7359C178.361 83.8417 178.312 83.0025 178.454 82.2184C178.595 81.4343 178.92 80.7679 179.429 80.2193C179.942 79.6691 180.618 79.2818 181.456 79.0574C182.486 78.7814 183.423 78.8608 184.267 79.2957C185.118 79.7292 185.697 80.4322 186.006 81.4049L184.521 81.8029C184.316 81.2208 183.959 80.7947 183.45 80.5247C182.945 80.2475 182.396 80.1885 181.801 80.3478C181.003 80.5616 180.461 81.0163 180.174 81.7119C179.892 82.4003 179.896 83.2878 180.187 84.3745L180.267 84.6716C180.55 85.73 180.987 86.4866 181.576 86.9415C182.164 87.3963 182.864 87.5153 183.673 87.2985ZM188.795 78.4649C189.262 77.4237 190.053 76.7538 191.168 76.455C193.109 75.9349 194.382 76.7677 194.985 78.9534L196.612 85.0235L195.041 85.4443L193.413 79.3658C193.23 78.7051 192.946 78.2565 192.561 78.0199C192.181 77.7818 191.678 77.7469 191.049 77.9153C190.54 78.0518 190.129 78.3074 189.817 78.6822C189.505 79.057 189.301 79.4939 189.204 79.993L190.958 86.5385L189.387 86.9593L185.893 73.9193L187.464 73.4985L188.795 78.4649Z" fill="black"/>
<rect x="63.6124" y="81.0452" width="148.493" height="64.2334" rx="6.5" transform="rotate(-15 63.6124 81.0452)" stroke="black"/>
</svg>
