<svg width="253" height="104" viewBox="0 0 253 104" fill="none" xmlns="http://www.w3.org/2000/svg">
<path d="M1 1C47.9831 1 79.5241 35.6667 126.836 35.6667C174.147 35.6667 209.302 1 253 1" stroke="black"/>
<path d="M1 2.37086C33.1982 0.726773 83.4668 46.3333 127.493 46.3333C171.519 46.3333 212.917 2.37086 253 2.37086" stroke="black"/>
<path d="M1 4.33331C39.7692 4.33331 84.1239 58 128.15 58C172.176 58 210.945 4.33331 253 4.33331" stroke="black"/>
<path d="M1 5.66669C38.1265 5.66669 84.1239 71.6667 128.15 71.6667C172.176 71.6667 212.917 5.66669 253 5.66669" stroke="black"/>
<path d="M1 7C37.4694 7 84.1239 87 128.15 87C172.176 87 211 7 253 7" stroke="black"/>
<path d="M1 9C37.4694 9 84.1239 103 128.15 103C172.176 103 209.96 9 253 9" stroke="black"/>
</svg>
