<svg width="227" height="356" viewBox="0 0 227 356" fill="none" xmlns="http://www.w3.org/2000/svg">
<path d="M225.843 313.39C225.843 313.39 226 10.9999 225.843 7.57226C225.686 4.14459 220.5 1 220.5 1H7C7 1 1.39308 1.99993 1.39308 5.99994C1.39308 9.99994 1 315.748 1 315.748C1 315.748 1 322.431 5.3239 326.755C9.6478 331.079 19.8679 338.154 19.8679 338.154C19.8679 338.154 21.0472 338.94 21.0472 340.513C21.0472 342.085 20.6541 354.27 35.9843 354.27H192.431C205.796 354.664 205.796 340.906 205.796 340.906C205.796 338.94 206.975 338.154 206.975 338.154C206.975 338.154 219.947 329.899 222.305 325.575C224.664 321.252 225.843 319.286 225.843 313.39Z" stroke="#FAFAFA" stroke-width="2"/>
<circle cx="113" cy="116" r="15.5" stroke="#FAFAFA" stroke-dasharray="2 2"/>
<path d="M71 74H155V158H71V74Z" fill="#FAFAFA" fill-opacity="0.1" stroke="#FAFAFA" stroke-width="2" stroke-linejoin="round"/>
<circle cx="113" cy="116" r="1.5" stroke="#FAFAFA"/>
</svg>
