<svg width="512" height="512" viewBox="0 0 512 512" fill="none" xmlns="http://www.w3.org/2000/svg">
<g clip-path="url(#clip0)">
<path d="M503.645 393.961L315.145 51.9609C303.254 30.3945 280.594 17 256 17C231.406 17 208.746 30.3945 196.859 51.9609L8.35938 393.961C2.89062 403.879 0 415.129 0 426.5C0 463.719 30.2812 494 67.5 494H444.5C481.719 494 512 463.719 512 426.5C512 415.129 509.109 403.879 503.645 393.961V393.961ZM444.5 479H67.5C38.5508 479 15 455.449 15 426.5C15 417.656 17.2461 408.906 21.4961 401.199L209.996 59.1992C219.242 42.4219 236.871 32 256 32C275.129 32 292.758 42.4219 302.008 59.1992L490.508 401.199C494.754 408.906 497 417.656 497 426.5C497 455.449 473.449 479 444.5 479Z" fill="#D63131"/>
<path d="M288.871 66.4414C282.258 54.4492 269.664 47 256 47C242.336 47 229.742 54.4492 223.133 66.4414L136.121 224.305C134.121 227.934 135.441 232.492 139.07 234.492C142.695 236.492 147.258 235.172 149.258 231.547L236.266 73.6836C240.238 66.4766 247.801 62 256 62C264.199 62 271.762 66.4766 275.734 73.6836L464.23 415.684C466.07 419.012 467 422.652 467 426.5C467 438.906 456.906 449 444.5 449H67.5C55.0938 449 45 438.906 45 426.5C45 422.652 45.9297 419.016 47.7656 415.684L134.777 257.82C136.777 254.191 135.457 249.633 131.828 247.633C128.199 245.633 123.641 246.953 121.641 250.578L34.6289 408.445C31.5586 414.016 30 420.094 30 426.5C30 447.18 46.8203 464 67.5 464H444.5C465.18 464 482 447.18 482 426.5C482 420.09 480.441 414.016 477.367 408.441L288.871 66.4414Z" fill="#D63131"/>
<path d="M256 404C268.406 404 278.5 393.906 278.5 381.5C278.5 369.094 268.406 359 256 359C243.594 359 233.5 369.094 233.5 381.5C233.5 393.906 243.594 404 256 404ZM256 374C260.137 374 263.5 377.363 263.5 381.5C263.5 385.637 260.137 389 256 389C251.863 389 248.5 385.637 248.5 381.5C248.5 377.363 251.863 374 256 374Z" fill="#D63131"/>
<path d="M256 344C268.406 344 278.5 333.906 278.5 321.5V201.5C278.5 189.094 268.406 179 256 179C243.594 179 233.5 189.094 233.5 201.5V321.5C233.5 333.906 243.594 344 256 344ZM248.5 201.5C248.5 197.363 251.863 194 256 194C260.137 194 263.5 197.363 263.5 201.5V321.5C263.5 325.637 260.137 329 256 329C251.863 329 248.5 325.637 248.5 321.5V201.5Z" fill="#D63131"/>
</g>
<defs>
<clipPath id="clip0">
<rect width="512" height="512" fill="white"/>
</clipPath>
</defs>
</svg>
